<svg width="92" height="91" viewBox="0 0 92 91" fill="none" xmlns="http://www.w3.org/2000/svg">
<path d="M91.3159 48.4595V48.4414L91.2979 48.4517L91.3159 48.4595Z" fill="#23B2E7"/>
<path d="M91.2979 37.4373L91.3159 37.4502V37.4321L91.2979 37.4373Z" fill="#23B2E7"/>
<path d="M45.6512 73.5845L80.3944 56.0413V45.0322L45.6512 62.5754L14.3428 46.7638V57.7729L45.6512 73.5845Z" fill="#12A65B"/>
<path d="M45.6512 90.3228L80.3944 72.7795V61.7705L45.6512 79.3137L14.3428 63.5021V74.5111L45.6512 90.3228Z" fill="#FFD025"/>
<path d="M91.2981 23.0477L45.6568 0L0.0180645 23.0477L0 23.0555V25.6335V34.0465V50.3303L10.3045 55.5329V39.249L45.6568 57.0993L91.2981 34.0516L91.3161 34.0465V23.0555L91.2981 23.0477ZM45.6516 46.1032L10.9135 28.56L45.6516 11.0168L80.3897 28.56L45.6516 46.1032Z" fill="#23B2E7"/>
</svg>
